<?xml version="1.0" encoding="UTF-8"?>
<!DOCTYPE svg PUBLIC "-//W3C//DTD SVG 1.1//EN" "http://www.w3.org/Graphics/SVG/1.1/DTD/svg11.dtd">
<!-- Creator: CorelDRAW 2020 (64 Bit) -->
<svg xmlns="http://www.w3.org/2000/svg" xml:space="preserve" width="42.3332mm" height="42.3332mm" version="1.1" style="shape-rendering:geometricPrecision; text-rendering:geometricPrecision; image-rendering:optimizeQuality; fill-rule:evenodd; clip-rule:evenodd"
viewBox="0 0 4233.32 4233.32"
 xmlns:xlink="http://www.w3.org/1999/xlink"
 xmlns:xodm="http://www.corel.com/coreldraw/odm/2003">
 <defs>
  <style type="text/css">
   <![CDATA[
    .str0 {stroke:#1865C4;stroke-width:7.62;stroke-miterlimit:22.9256}
    .fil1 {fill:none}
    .fil0 {fill:#134191}
    .fil2 {fill:#1865C4}
    .fil3 {fill:white;fill-rule:nonzero}
   ]]>
  </style>
 </defs>
 <g id="Camada_x0020_1">
  <metadata id="CorelCorpID_0Corel-Layer"/>
  <g id="_2530960277200">
   <polygon class="fil0" points="2594.16,801.92 2755.88,999.49 2766.11,1016.72 2875.74,1250.54 2882.04,1262.13 2889.5,1272.59 2730.49,1080.58 2722.89,1069.92 2716.46,1058.1 2604.59,819.5 "/>
   <polygon class="fil0" points="3119.19,1189.76 3270.42,1379.57 3280.88,1395.45 3288.26,1413.12 3292.25,1432.18 3292.46,1452.2 3270.49,1709.52 3270.16,1722.7 3271.37,1735.48 3274.14,1747.77 3278.4,1759.48 3284.15,1770.54 3291.32,1780.89 3140.52,1599.26 3133.2,1588.71 3127.34,1577.41 3122.99,1565.46 3120.17,1552.92 3118.92,1539.88 3119.26,1526.44 3141.69,1263.87 3141.46,1243.43 3137.4,1223.99 3129.87,1205.96 "/>
   <polygon class="fil0" points="3377.72,1789.09 3523.79,1966.93 3535.12,1982.75 3543.14,2000.13 3547.74,2018.59 3548.86,2037.56 3546.42,2056.57 3540.35,2075.05 3530.54,2092.5 3382.86,2304.37 3375.99,2315.63 3370.65,2327.3 3366.9,2339.3 3364.74,2351.58 3364.18,2364.03 3365.22,2376.58 3367.88,2389.14 3372.17,2401.61 3467.78,2634.78 3473.54,2653.95 3475.44,2673.32 3473.68,2692.4 3468.45,2710.68 3459.94,2727.68 3448.32,2742.92 3433.8,2755.88 3416.57,2766.11 3182.75,2875.74 3171.16,2882.04 3160.72,2889.5 3151.47,2898.02 3143.45,2907.58 3136.75,2918.08 3131.37,2929.46 3127.39,2941.67 3124.86,2954.59 3091.08,3204.34 3086.5,3223.84 3078.46,3241.58 3067.4,3257.2 3053.73,3270.42 3037.84,3280.88 3020.17,3288.26 3001.13,3292.25 2981.09,3292.46 2723.79,3270.49 2710.59,3270.16 2697.83,3271.37 2685.54,3274.14 2673.83,3278.4 2662.75,3284.15 2652.41,3291.32 2642.89,3299.89 2634.2,3309.84 2480.1,3509.2 2466.38,3523.79 2450.56,3535.12 2433.16,3543.14 2414.72,3547.74 2395.73,3548.86 2376.74,3546.42 2358.26,3540.35 2340.79,3530.54 2128.92,3382.86 2117.68,3375.99 2106.01,3370.65 2094,3366.9 2081.71,3364.74 2069.26,3364.18 2056.73,3365.22 2044.17,3367.88 2031.7,3372.17 1798.53,3467.78 1779.34,3473.54 1759.97,3475.44 1740.91,3473.68 1722.61,3468.45 1705.61,3459.94 1690.38,3448.32 1506.9,3300.72 1522.45,3312.57 1539.79,3321.26 1558.46,3326.6 1577.92,3328.4 1597.68,3326.46 1617.25,3320.58 1855.19,3223.01 1867.91,3218.64 1880.73,3215.93 1893.53,3214.86 1906.23,3215.44 1918.76,3217.65 1931.01,3221.47 1942.93,3226.92 1954.4,3233.94 2170.59,3384.62 2188.41,3394.63 2207.27,3400.82 2226.66,3403.32 2246.02,3402.16 2264.85,3397.47 2282.59,3389.29 2298.74,3377.72 2312.75,3362.84 2470,3159.41 2478.85,3149.26 2488.57,3140.52 2499.13,3133.2 2510.42,3127.34 2522.37,3122.99 2534.91,3120.17 2547.95,3118.92 2561.4,3119.26 2823.97,3141.69 2844.4,3141.46 2863.85,3137.4 2881.87,3129.87 2898.08,3119.19 2912.03,3105.71 2923.31,3089.76 2931.51,3071.66 2936.2,3051.76 2970.66,2796.92 2973.25,2783.73 2977.31,2771.27 2982.79,2759.67 2989.64,2748.95 2997.82,2739.19 3007.25,2730.49 3017.91,2722.89 3029.73,2716.46 3268.33,2604.59 3285.91,2594.16 3300.72,2580.93 3312.57,2565.38 3321.26,2548.04 3326.6,2529.37 3328.4,2509.92 3326.46,2490.15 3320.58,2470.58 3223.01,2232.65 3218.64,2219.92 3215.93,2207.11 3214.86,2194.31 3215.44,2181.6 3217.65,2169.07 3221.47,2156.82 3226.92,2144.91 3233.94,2133.43 3384.62,1917.24 3394.63,1899.43 3400.82,1880.56 3403.32,1861.18 3402.16,1841.81 3397.47,1822.98 3389.29,1805.24 "/>
   <polygon class="fil0" points="1338.88,2989.64 1525.71,3143.45 1515.21,3136.75 1503.84,3131.37 1491.64,3127.39 1478.7,3124.86 1228.97,3091.08 1209.47,3086.5 1191.73,3078.46 1176.09,3067.4 982.13,2912.03 998.07,2923.31 1016.18,2931.51 1036.07,2936.2 1290.91,2970.66 1304.11,2973.25 1316.56,2977.31 1328.16,2982.79 "/>
   <g>
    <path class="fil1 str0" d="M2232.65 864.83l237.94 -97.57c51.47,-21.11 110.38,1.86 133.99,52.24l111.88 238.6c15.51,33.03 44.29,54.18 80.46,59.07l254.84 34.46c55.15,7.47 94.67,56.8 89.93,112.24l-22.42 262.57c-3.11,36.37 11.26,69.07 40.14,91.39l203.44 157.26c44.01,34.02 53.58,96.51 21.78,142.14l-150.7 216.2c-20.86,29.95 -24.79,65.45 -10.93,99.22l97.57 237.94c21.11,51.47 -1.86,110.38 -52.24,133.99l-238.59 111.88c-33.04,15.51 -54.19,44.29 -59.08,80.46l-34.46 254.84c-7.46,55.15 -56.8,94.67 -112.24,89.93l-262.57 -22.42c-36.37,-3.11 -69.07,11.26 -91.39,40.14l-157.26 203.44c-34.02,44.01 -96.5,53.58 -142.14,21.78l-216.2 -150.7c-29.94,-20.86 -65.44,-24.79 -99.22,-10.93l-237.93 97.57c-51.48,21.11 -110.38,-1.86 -134,-52.24l-111.88 -238.59c-15.5,-33.04 -44.29,-54.19 -80.45,-59.08l-254.85 -34.46c-55.15,-7.46 -94.67,-56.8 -89.93,-112.24l22.42 -262.57c3.11,-36.37 -11.25,-69.07 -40.14,-91.39l-203.44 -157.26c-44.01,-34.02 -53.58,-96.5 -21.78,-142.14l150.7 -216.2c20.87,-29.94 24.79,-65.44 10.93,-99.22l-97.57 -237.93c-21.11,-51.48 1.86,-110.38 52.24,-134l238.6 -111.88c33.03,-15.5 54.18,-44.29 59.07,-80.45l34.46 -254.85c7.47,-55.15 56.8,-94.67 112.24,-89.93l262.57 22.42c36.37,3.11 69.07,-11.25 91.39,-40.14l157.26 -203.42c34.02,-44.01 96.51,-53.6 142.14,-21.8l216.2 150.7c29.95,20.87 65.45,24.79 99.22,10.93z"/>
    <path id="1" class="fil2" d="M2232.65 864.83l237.94 -97.57c51.47,-21.11 110.38,1.86 133.99,52.24l111.88 238.6c15.51,33.03 44.29,54.18 80.46,59.07l254.84 34.46c55.15,7.47 94.67,56.8 89.93,112.24l-22.42 262.57c-3.11,36.37 11.26,69.07 40.14,91.39l203.44 157.26c44.01,34.02 53.58,96.51 21.78,142.14l-150.7 216.2c-20.86,29.95 -24.79,65.45 -10.93,99.22l97.57 237.94c21.11,51.47 -1.86,110.38 -52.24,133.99l-238.59 111.88c-33.04,15.51 -54.19,44.29 -59.08,80.46l-34.46 254.84c-7.46,55.15 -56.8,94.67 -112.24,89.93l-262.57 -22.42c-36.37,-3.11 -69.07,11.26 -91.39,40.14l-157.26 203.44c-34.02,44.01 -96.5,53.58 -142.14,21.78l-216.2 -150.7c-29.94,-20.86 -65.44,-24.79 -99.22,-10.93l-237.93 97.57c-51.48,21.11 -110.38,-1.86 -134,-52.24l-111.88 -238.59c-15.5,-33.04 -44.29,-54.19 -80.45,-59.08l-254.85 -34.46c-55.15,-7.46 -94.67,-56.8 -89.93,-112.24l22.42 -262.57c3.11,-36.37 -11.25,-69.07 -40.14,-91.39l-203.44 -157.26c-44.01,-34.02 -53.58,-96.5 -21.78,-142.14l150.7 -216.2c20.87,-29.94 24.79,-65.44 10.93,-99.22l-97.57 -237.93c-21.11,-51.48 1.86,-110.38 52.24,-134l238.6 -111.88c33.03,-15.5 54.18,-44.29 59.07,-80.45l34.46 -254.85c7.47,-55.15 56.8,-94.67 112.24,-89.93l262.57 22.42c36.37,3.11 69.07,-11.25 91.39,-40.14l157.26 -203.42c34.02,-44.01 96.51,-53.6 142.14,-21.8l216.2 150.7c29.95,20.87 65.45,24.79 99.22,10.93z"/>
   </g>
   <path class="fil3" d="M1373.78 2423.86l-171.99 -472.16 156.93 -26.39 141.7 400.67 -99.85 16.78 178.63 -454.5 156.93 -26.4 -211.9 536.69 -150.45 25.31zm512.23 -78.96c-38.9,6.53 -73.91,4.89 -105.01,-4.91 -31.08,-9.79 -56.44,-26.64 -76.06,-50.56 -19.62,-23.89 -32.01,-53.54 -37.13,-88.95 -6.06,-41.92 -1.99,-81.02 12.24,-117.3 14.23,-36.28 36.62,-66.76 67.14,-91.45 30.52,-24.71 67.19,-40.66 109.99,-47.85 39.33,-6.62 74.45,-5.01 105.33,4.84 30.87,9.85 56.1,26.59 75.69,50.27 19.6,23.67 31.98,53.43 37.18,89.31 6.06,41.93 1.99,81.03 -12.24,117.3 -14.25,36.26 -36.51,66.75 -66.81,91.4 -30.32,24.67 -67.09,40.62 -110.32,47.9zm-9.37 -124.42c12.96,-2.19 23.69,-7.67 32.16,-16.49 8.46,-8.83 14.43,-20.33 17.92,-34.5 3.46,-14.21 3.9,-30.38 1.27,-48.55 -2.37,-16.29 -8.98,-29.85 -19.86,-40.67 -10.84,-10.83 -24.72,-14.83 -41.58,-11.99 -12.52,2.1 -23.15,7.59 -31.82,16.46 -8.69,8.85 -14.77,20.38 -18.25,34.55 -3.49,14.18 -3.91,30.36 -1.28,48.53 2.62,18.18 9.41,32.19 20.36,42.04 10.95,9.84 24.64,13.37 41.08,10.62zm385.71 61.15c-30.25,5.09 -56.86,3.35 -79.79,-5.21 -22.95,-8.55 -40.44,-23.86 -52.5,-45.93 -12.03,-22.06 -17.43,-50.16 -16.18,-84.24l12.89 -328.57 146.55 -24.66 -12.98 327.88c-0.27,13.4 2.41,22.74 8.04,28.01 5.63,5.25 13.41,7.04 23.37,5.37 6.05,-1.01 11.44,-2.77 16.17,-5.23 4.74,-2.46 9.72,-5.57 14.95,-9.3l32.22 103.36c-12.26,10.17 -26.45,18.41 -42.59,24.71 -16.13,6.3 -32.84,10.9 -50.15,13.81zm-192.71 -248.21l4.72 -118.9 267.82 -45.02 -4.7 118.9 -267.84 45.02zm495.78 197.25c-38.91,6.54 -74,5.04 -105.27,-4.48 -31.26,-9.54 -57.04,-26.22 -77.31,-50 -20.27,-23.79 -33.02,-53.62 -38.21,-89.5 -6.07,-41.92 -2.43,-80.95 10.95,-117.08 13.36,-36.13 35.21,-66.53 65.51,-91.18 30.32,-24.67 67.5,-40.71 111.62,-48.12 38.03,-6.39 71.52,-4.61 100.41,5.31 28.89,9.93 52.29,26.28 70.2,49.04 17.92,22.77 29.27,50.68 34.05,83.75 1.68,11.64 2.57,23.19 2.68,34.61 0.1,11.44 -0.19,22.49 -0.86,33.09l-275.6 46.35 2.57 -78.48 194.56 -32.71 -58.01 30.52c1.28,-15.49 -0.66,-28.16 -5.85,-38.03 -5.2,-9.86 -12.53,-16.98 -22.01,-21.36 -9.51,-4.36 -20.51,-5.48 -33.06,-3.38 -17.7,2.98 -31.02,10.46 -39.91,22.44 -8.89,12 -14.45,26.54 -16.62,43.61 -2.17,17.07 -1.97,34.45 0.58,52.15 3.44,23.77 11.84,39.64 25.16,47.66 13.34,8.02 31.48,10.1 54.38,6.25 13.41,-2.25 26.48,-6.72 39.26,-13.4 12.75,-6.68 24.11,-15.38 34.07,-26.14l74.82 85.5c-21.64,21.78 -45.04,38.36 -70.17,49.74 -25.16,11.37 -51.13,19.34 -77.94,23.84zm202.96 -233.11l-17.13 -306.34 175.1 -29.45 -41.25 316.16 -116.72 19.63zm61.2 188.71c-23.77,3.98 -44.3,-0.2 -61.6,-12.56 -17.29,-12.37 -27.5,-29.26 -30.6,-50.69 -3.78,-26.1 1.76,-48.98 16.64,-68.64 14.86,-19.68 35.05,-31.68 60.55,-35.97 24.22,-4.05 44.82,-0.13 61.84,11.8 17,11.95 27.06,28.6 30.16,50.06 2.42,16.76 0.63,32.69 -5.38,47.78 -6.01,15.08 -15.12,27.83 -27.33,38.24 -12.22,10.4 -26.99,17.07 -44.28,19.98z"/>
  </g>
 </g>
</svg>
